<svg xmlns="http://www.w3.org/2000/svg" width="100" height="88.892" viewBox="0 0 100 88.892">
  <path id="Exclusion_1" data-name="Exclusion 1" d="M80.555,88.892H69.443a2.781,2.781,0,0,1-2.777-2.777V77.781H44.442v8.334a2.781,2.781,0,0,1-2.777,2.777H30.553a2.781,2.781,0,0,1-2.778-2.777V72.1a28.405,28.405,0,0,1-8.069-9.553A27.1,27.1,0,0,1,16.664,50H9.719A9.724,9.724,0,0,1,.083,38.994,9.437,9.437,0,0,1,3.454,32.94a10.352,10.352,0,0,1,6.612-2.383A1.043,1.043,0,0,1,11.108,31.6v3.473a1.043,1.043,0,0,1-1.042,1.041H9.893a4.522,4.522,0,0,0-2.739.925,4.008,4.008,0,0,0-1.515,2.409,4.172,4.172,0,0,0,4.081,5h7.5A27.76,27.76,0,0,1,44.442,22.223H66.666a25.2,25.2,0,0,1,3.655.35l.339.049a17.108,17.108,0,0,1,5.568-4.332,16.209,16.209,0,0,1,7.105-1.624h5.556L85.607,29.776A27.772,27.772,0,0,1,92.1,38.891h5.122A2.781,2.781,0,0,1,100,41.668V63.891a2.781,2.781,0,0,1-2.777,2.778H88.767A27.821,27.821,0,0,1,83.333,72.1V86.115A2.781,2.781,0,0,1,80.555,88.892ZM47.022,50.383a1.246,1.246,0,0,0-1.245,1.244,4.166,4.166,0,0,0,1.89,3.295,9.644,9.644,0,0,0,4.745,1.664v.142a1.244,1.244,0,1,0,2.489,0v-.142a9.642,9.642,0,0,0,4.745-1.664,4.166,4.166,0,0,0,1.89-3.295c0-3.458-3.189-4.831-6.636-5.8V39.468c2.6.316,4.147,1.5,4.147,2.454a1.244,1.244,0,1,0,2.489,0,4.165,4.165,0,0,0-1.89-3.294A9.645,9.645,0,0,0,54.9,36.964v-.143a1.244,1.244,0,0,0-2.489,0v.143a9.644,9.644,0,0,0-4.745,1.664,4.165,4.165,0,0,0-1.89,3.294c0,3.458,3.189,4.832,6.636,5.8v6.358c-2.6-.316-4.147-1.5-4.147-2.455A1.245,1.245,0,0,0,47.022,50.383ZM75,44.447a2.778,2.778,0,1,0,2.778,2.777A2.781,2.781,0,0,0,75,44.447ZM54.9,54.082h0v-5.65c3.024.948,4.147,1.815,4.147,3.2,0,.958-1.551,2.138-4.146,2.454Zm-2.488-8.963h0c-3.022-.948-4.146-1.814-4.146-3.2,0-.958,1.551-2.138,4.147-2.454v5.65Zm-16.2-27.375h0c-.008-.161-.03-.321-.051-.476a4.47,4.47,0,0,1-.054-.6,16.667,16.667,0,0,1,33.334,0,.347.347,0,0,1-.009.07.347.347,0,0,0-.009.07c-.793-.062-1.778-.139-2.76-.139H44.442a33.2,33.2,0,0,0-8.228,1.076Z" transform="translate(0)" fill="#2036ff"/>
</svg>
